<svg xmlns="http://www.w3.org/2000/svg" xmlns:xlink="http://www.w3.org/1999/xlink" viewBox="0 0 90 35" preserveAspectRatio="xMidYMid" style="display: block; shape-rendering: auto; background: transparent;" width="90" height="35"><style type="text/css">
  .ld-text text {
    text-anchor: middle;
    dominant-baseline: middle;
    font-size: 32px;
    opacity: 0;
    user-select: none;
    pointer-events: none;
  }
</style>
<g style="transform-origin:42.5px 15px;transform:scale(1)" class="ld-text">
<g transform="translate(42.5,15)">
  <g transform="scale(0.3500) translate(0,0)"><g class="path" style="opacity: 1; transform-origin: -97.44px 6.81px; transform: matrix3d(0.91, 0, 0, 0, 0, 0.91, 0, 0, 0, 0, 0.91, 0, 0, 0, 0, 1); animation: 1s linear -0.5775s infinite normal forwards running animate-czivo3ckm4m; transform-box: view-box;"><path d="M21.68 51.62L1.68 34.34L21.44 16.50L26.16 21.86L13.04 34.02L26.80 45.94L21.68 51.62" style="fill: rgb(255, 255, 255);" transform="translate(-111.680,-27.250)"></path></g><g class="path" style="opacity: 1; transform-origin: -54.36px -0.39px; transform: matrix3d(0.91, 0, 0, 0, 0, 0.91, 0, 0, 0, 0, 0.91, 0, 0, 0, 0, 1); animation: 1s linear -0.495s infinite normal forwards running animate-czivo3ckm4m; transform-box: view-box;"><path d="M81.84 53.14L70.32 54.90L66.40 39.30L47.28 39.30L43.04 54.50L32.80 53.70L39.84 34.26L50.56-0.14L64.88-1.18L75.20 33.06L81.84 53.14 zM64 30.82L57.68 9.22L56.64 9.22L49.76 30.82L64 30.82" style="fill: rgb(255, 255, 255);" transform="translate(-111.680,-27.250)"></path></g><g class="path" style="opacity: 1; transform-origin: -7.36px -3.71px; transform: matrix3d(0.91, 0, 0, 0, 0, 0.91, 0, 0, 0, 0, 0.91, 0, 0, 0, 0, 1); animation: 1s linear -0.4125s infinite normal forwards running animate-czivo3ckm4m; transform-box: view-box;"><path d="M108.88 14.10L108.88 14.10Q114.24 14.10 117.60 18.74Q120.96 23.38 120.96 30.66L120.96 30.66Q120.96 41.14 115.48 47.82Q110 54.50 101.28 54.50L101.28 54.50Q97.28 54.50 87.84 53.22L87.84 53.22L88.64 35.06L87.68-5.42L98.64-7.42L97.60 13.22L97.60 21.86Q98.48 20.58 99.76 19.14Q101.04 17.70 103.76 15.90Q106.48 14.10 108.88 14.10 zM105.76 24.50L105.76 24.50Q102.08 24.50 97.60 26.74L97.60 26.74L97.60 33.70L98.08 45.46Q101.44 45.86 104.40 45.86L104.40 45.86Q112.08 45.86 112.08 35.18Q112.08 24.50 105.76 24.50" style="fill: rgb(255, 255, 255);" transform="translate(-111.680,-27.250)"></path></g><g class="path" style="opacity: 1; transform-origin: 21.24px 6.89px; transform: matrix3d(0.91, 0, 0, 0, 0, 0.91, 0, 0, 0, 0, 0.91, 0, 0, 0, 0, 1); animation: 1s linear -0.33s infinite normal forwards running animate-czivo3ckm4m; transform-box: view-box;"><path d="M127.60 15.78L138.32 13.78L137.36 33.70L138.24 52.50L127.52 54.50L128.48 35.06L127.60 15.78" style="fill: rgb(255, 255, 255);" transform="translate(-111.680,-27.250)"></path></g><g class="path" style="opacity: 1; transform-origin: 21.6px -25.55px; transform: matrix3d(0.91, 0, 0, 0, 0, 0.91, 0, 0, 0, 0, 0.91, 0, 0, 0, 0, 1); animation: 1s linear -0.2475s infinite normal forwards running animate-czivo3ckm4m; transform-box: view-box;"><path d="M127.04 2.06Q127.04-0.62 129.12-2.74Q131.20-4.86 133.92-4.86Q136.64-4.86 138.08-3.38Q139.52-1.90 139.52 1.06Q139.52 4.02 137.48 6.14Q135.44 8.26 132.76 8.26Q130.08 8.26 128.56 6.50Q127.04 4.74 127.04 2.06" style="fill: rgb(255, 255, 255);" transform="translate(-111.680,-27.250)"></path></g><g class="path" style="opacity: 1; transform-origin: 46.72px 6.89px; transform: matrix3d(0.91, 0, 0, 0, 0, 0.91, 0, 0, 0, 0, 0.91, 0, 0, 0, 0, 1); animation: 1s linear -0.165s infinite normal forwards running animate-czivo3ckm4m; transform-box: view-box;"><path d="M146.24 15.86L146.24 15.86L155.92 13.78Q156.64 19.94 156.88 25.46L156.88 25.46Q164.16 14.18 170.56 14.18L170.56 14.18L169.68 26.66Q165.04 26.66 162.36 27.50Q159.68 28.34 156.88 30.82L156.88 30.82L156.88 33.70L157.76 52.50L147.04 54.50L148 35.06Q147.68 24.34 146.24 15.86" style="fill: rgb(255, 255, 255);" transform="translate(-111.680,-27.250)"></path></g><g class="path" style="opacity: 1; transform-origin: 72.28px 2.25px; transform: matrix3d(0.91, 0, 0, 0, 0, 0.91, 0, 0, 0, 0, 0.91, 0, 0, 0, 0, 1); animation: 1s linear -0.0825s infinite normal forwards running animate-czivo3ckm4m; transform-box: view-box;"><path d="M196.24-4.86L178.88 65.14L171.68 63.86L189.04-6.14L196.24-4.86" style="fill: rgb(255, 255, 255);" transform="translate(-111.680,-27.250)"></path></g><g class="path" style="opacity: 1; transform-origin: 100.8px 6.81px; transform: matrix3d(0.91, 0, 0, 0, 0, 0.91, 0, 0, 0, 0, 0.91, 0, 0, 0, 0, 1); animation: 1s linear 0s infinite normal forwards running animate-czivo3ckm4m; transform-box: view-box;"><path d="M205.04 16.50L225.04 33.78L205.28 51.62L200.56 46.26L213.68 34.10L199.92 22.18L205.04 16.50" style="fill: rgb(255, 255, 255);" transform="translate(-111.680,-27.250)"></path></g></g><text dy="0.35em" fill="#ffffff" font-family="Acme" font-size="28">&lt;Abir/&gt;</text>
</g>
</g><style type="text/css">@keyframes animate-czivo3ckm4m { 0.00% {transform: translate(0.00px,0.00px) rotate(0.00deg) scale(0.91, 0.91) skew(0deg, 0.00deg) ;opacity: 1.00;}4.00% {transform: translate(0.00px,0.00px) rotate(0.00deg) scale(0.91, 0.91) ;}8.00% {animation-timing-function: cubic-bezier(0.69,0.60,0.35,0.27);transform: translate(0.00px,0.00px) rotate(0.00deg) scale(0.91, 0.91) ;}14.00% {transform: translate(0.00px,0.00px) rotate(0.00deg) scale(0.93, 0.93) ;}18.00% {transform: translate(0.00px,0.00px) rotate(0.00deg) scale(0.94, 0.94) ;}22.00% {animation-timing-function: cubic-bezier(0.67,0.66,0.34,0.33);transform: translate(0.00px,0.00px) rotate(0.00deg) scale(0.96, 0.96) ;}26.00% {transform: translate(0.00px,0.00px) rotate(0.00deg) scale(0.97, 0.97) ;}30.00% {transform: translate(0.00px,0.00px) rotate(0.00deg) scale(0.99, 0.99) ;}34.00% {animation-timing-function: cubic-bezier(0.65,0.71,0.32,0.38);transform: translate(0.00px,0.00px) rotate(0.00deg) scale(1.01, 1.01) ;}40.00% {animation-timing-function: cubic-bezier(0.64,0.74,0.31,0.41);transform: translate(0.00px,0.00px) rotate(0.00deg) scale(1.02, 1.02) ;}46.00% {animation-timing-function: cubic-bezier(0.60,0.91,0.23,0.63);transform: translate(0.00px,0.00px) rotate(0.00deg) scale(1.03, 1.03) ;}50.00% {transform: translate(0.00px,0.00px) rotate(0.00deg) scale(1.03, 1.03) ;}54.00% {transform: translate(0.00px,0.00px) rotate(0.00deg) scale(1.03, 1.03) ;}58.00% {animation-timing-function: cubic-bezier(0.69,0.60,0.35,0.27);transform: translate(0.00px,0.00px) rotate(0.00deg) scale(1.03, 1.03) ;}64.00% {transform: translate(0.00px,0.00px) rotate(0.00deg) scale(1.01, 1.01) ;}68.00% {transform: translate(0.00px,0.00px) rotate(0.00deg) scale(1.00, 1.00) ;}72.00% {animation-timing-function: cubic-bezier(0.67,0.66,0.34,0.33);transform: translate(0.00px,0.00px) rotate(0.00deg) scale(0.98, 0.98) ;}76.00% {animation-timing-function: cubic-bezier(0.66,0.68,0.33,0.35);transform: translate(0.00px,0.00px) rotate(0.00deg) scale(0.97, 0.97) ;}82.00% {animation-timing-function: cubic-bezier(0.65,0.71,0.32,0.38);transform: translate(0.00px,0.00px) rotate(0.00deg) scale(0.94, 0.94) ;}88.00% {animation-timing-function: cubic-bezier(0.65,0.73,0.31,0.40);transform: translate(0.00px,0.00px) rotate(0.00deg) scale(0.92, 0.92) ;}94.00% {animation-timing-function: cubic-bezier(0.63,0.80,0.28,0.48);transform: translate(0.00px,0.00px) rotate(0.00deg) scale(0.91, 0.91) ;}100.00% {animation-timing-function: cubic-bezier(0.63,0.80,0.28,0.48);transform: translate(0.00px,0.00px) rotate(0.00deg) scale(0.91, 0.91) ;} }</style><!-- [ldio] generated by https://loading.io --></svg>