<svg width="112" height="28" viewBox="0 0 112 28" fill="none" xmlns="http://www.w3.org/2000/svg">
<path d="M0.106834 15.1044V11.3544L15.1068 4.74929V9.06392L4.83695 13.1868L4.97544 12.9631V13.4957L4.83695 13.272L15.1068 17.3949V21.7095L0.106834 15.1044ZM22.8591 24H17.9159L25.4479 2.18182H31.3925L38.9138 24H33.9706L28.5054 7.16761H28.335L22.8591 24ZM22.5502 15.424H34.2263V19.0249H22.5502V15.424ZM40.9399 24V2.18182H45.4782V10.3849H45.6167C45.8156 9.9446 46.1032 9.49716 46.4796 9.04261C46.8632 8.58097 47.3603 8.19744 47.9711 7.89205C48.589 7.57955 49.3561 7.4233 50.2722 7.4233C51.4654 7.4233 52.5663 7.7358 53.5748 8.3608C54.5833 8.97869 55.3894 9.91264 55.9931 11.1626C56.5968 12.4055 56.8987 13.9645 56.8987 15.8395C56.8987 17.6648 56.6039 19.206 56.0144 20.4631C55.432 21.7131 54.6366 22.6612 53.6281 23.3075C52.6266 23.9467 51.5045 24.2663 50.2616 24.2663C49.3809 24.2663 48.6316 24.1207 48.0137 23.8295C47.4029 23.5384 46.9022 23.1726 46.5116 22.7322C46.121 22.2848 45.8227 21.8338 45.6167 21.3793H45.4143V24H40.9399ZM45.3823 15.8182C45.3823 16.7912 45.5173 17.6399 45.7872 18.3643C46.057 19.0888 46.4477 19.6534 46.959 20.0582C47.4704 20.456 48.0918 20.6548 48.8234 20.6548C49.562 20.6548 50.187 20.4524 50.6984 20.0476C51.2097 19.6357 51.5968 19.0675 51.8596 18.343C52.1295 17.6115 52.2644 16.7699 52.2644 15.8182C52.2644 14.8736 52.133 14.0426 51.8703 13.3253C51.6075 12.608 51.2204 12.0469 50.709 11.642C50.1977 11.2372 49.5691 11.0348 48.8234 11.0348C48.0847 11.0348 47.4597 11.2301 46.9484 11.6207C46.4441 12.0114 46.057 12.5653 45.7872 13.2827C45.5173 14 45.3823 14.8452 45.3823 15.8182ZM59.3269 24V7.63636H63.8653V24H59.3269ZM61.6067 5.52699C60.932 5.52699 60.3532 5.30327 59.8702 4.85582C59.3944 4.40128 59.1564 3.85795 59.1564 3.22585C59.1564 2.60085 59.3944 2.06463 59.8702 1.61719C60.3532 1.16264 60.932 0.935368 61.6067 0.935368C62.2814 0.935368 62.8567 1.16264 63.3326 1.61719C63.8155 2.06463 64.057 2.60085 64.057 3.22585C64.057 3.85795 63.8155 4.40128 63.3326 4.85582C62.8567 5.30327 62.2814 5.52699 61.6067 5.52699ZM66.9007 24V7.63636H71.3006V10.4915H71.471C71.7693 9.47585 72.27 8.70881 72.9732 8.19034C73.6763 7.66477 74.486 7.40199 75.4021 7.40199C75.6294 7.40199 75.8744 7.41619 76.1372 7.4446C76.4 7.47301 76.6308 7.51207 76.8297 7.56179V11.5888C76.6166 11.5249 76.3219 11.468 75.9455 11.4183C75.569 11.3686 75.2246 11.3438 74.9121 11.3438C74.2445 11.3438 73.6479 11.4893 73.1223 11.7805C72.6039 12.0646 72.1919 12.4624 71.8865 12.9737C71.5882 13.4851 71.4391 14.0746 71.4391 14.7422V24H66.9007ZM94.4223 1.15909L87.3911 27.2812H83.4813L90.5125 1.15909H94.4223ZM111.893 17.1499L96.8932 23.755V19.4403L107.163 15.3175L107.025 15.5412V15.0085L107.163 15.2322L96.8932 11.1094V6.79474L111.893 13.3999V17.1499Z" fill="#F9FAFB"/>
</svg>
